<svg xmlns="http://www.w3.org/2000/svg" width="1080" height="1440" viewBox="0 0 1080 1440">
  <rect width="1080" height="1440" fill="#F6F2E8"/>
  
  
  <g transform="translate(84 76)">
    
  <g transform="translate(0 0)">
    <rect x="0" y="0" width="64" height="64" rx="13" fill="#163B3A"/>
    <ellipse cx="32" cy="32" rx="21.76" ry="11.52" fill="none" stroke="#FFFDF7" stroke-width="2.88" transform="rotate(-24 32 32)"/>
    <ellipse cx="32" cy="32" rx="21.76" ry="11.52" fill="none" stroke="#FFFDF7" stroke-width="2.88" transform="rotate(24 32 32)"/>
    <circle cx="48" cy="17.92" r="4.8" fill="#F2C94C"/>
    <text x="32" y="39.68" font-family="'PingFang SC','Hiragino Sans GB','STHeiti','Helvetica Neue',Arial,sans-serif" font-size="21.76" font-weight="800" fill="#FFFDF7" text-anchor="middle">AI</text>
  </g>
    <text x="78" y="29" font-family="'PingFang SC','Hiragino Sans GB','STHeiti','Helvetica Neue',Arial,sans-serif" font-size="28" font-weight="800" fill="#111827">AI宇宙</text>
    <text x="79" y="55" font-family="'PingFang SC','Hiragino Sans GB','STHeiti','Helvetica Neue',Arial,sans-serif" font-size="17" font-weight="700" fill="#009B95" letter-spacing="1.5">AI NEWS</text>
  </g>
  <rect x="760" y="90" width="236" height="46" rx="23" fill="#163B3A"/>
<text x="878" y="121" font-family="'PingFang SC','Hiragino Sans GB','STHeiti','Helvetica Neue',Arial,sans-serif" font-size="24" font-weight="700" fill="#FFFDF7" text-anchor="middle">工具实测</text>
  <rect x="84" y="218" width="912" height="6" rx="3" fill="#D84A3A"/>
  <rect x="84" y="252" width="220" height="46" rx="23" fill="#D84A3A"/>
<text x="194" y="283" font-family="'PingFang SC','Hiragino Sans GB','STHeiti','Helvetica Neue',Arial,sans-serif" font-size="24" font-weight="700" fill="#FFFDF7" text-anchor="middle">工具实测</text>
  <text x="84" y="390" font-family="'PingFang SC','Hiragino Sans GB','STHeiti','Helvetica Neue',Arial,sans-serif" font-size="86" font-weight="900" fill="#111827" text-anchor="start">我用 Codex</text>
<text x="84" y="486.32" font-family="'PingFang SC','Hiragino Sans GB','STHeiti','Helvetica Neue',Arial,sans-serif" font-size="86" font-weight="900" fill="#111827" text-anchor="start">跑了一次图文流程</text>
  <text x="84" y="630" font-family="'PingFang SC','Hiragino Sans GB','STHeiti','Helvetica Neue',Arial,sans-serif" font-size="40" font-weight="700" fill="#4B5563" text-anchor="start">能提效，但不能省掉审核</text>
  <g transform="translate(84 762)">
    <rect x="0" y="0" width="912" height="318" rx="28" fill="#163B3A"/>
    <path d="M74 166 C180 52, 312 52, 420 164 S662 276, 838 106" fill="none" stroke="#009B95" stroke-width="14" stroke-linecap="round"/>
    <path d="M74 210 C190 318, 334 300, 450 198 S674 64, 840 242" fill="none" stroke="#F2C94C" stroke-width="12" stroke-linecap="round"/>
    <circle cx="180" cy="122" r="18" fill="#F2C94C"/>
    <circle cx="708" cy="98" r="16" fill="#D84A3A"/>
    <text x="456" y="184" font-family="'PingFang SC','Hiragino Sans GB','STHeiti','Helvetica Neue',Arial,sans-serif" font-size="42" font-weight="900" fill="#FFFDF7" text-anchor="middle">DRAFT -&gt; CARDS</text>
    <text x="456" y="236" font-family="'PingFang SC','Hiragino Sans GB','STHeiti','Helvetica Neue',Arial,sans-serif" font-size="28" font-weight="700" fill="#CFF8F4" text-anchor="middle">草稿、核验、卡片一条线</text>
  </g>
  <rect x="84" y="1136" width="912" height="88" rx="22" fill="#FFFDF7" stroke="#D7D0C2" stroke-width="2"/>
  <text x="120" y="1192" font-family="'PingFang SC','Hiragino Sans GB','STHeiti','Helvetica Neue',Arial,sans-serif" font-size="28" font-weight="700" fill="#111827" text-anchor="start">结论：适合当执行编辑，不适合当总编辑</text>
  
  <line x1="84" y1="1324" x2="996" y2="1324" stroke="#D7D0C2" stroke-width="2"/>
  <text x="84" y="1372" font-family="'PingFang SC','Hiragino Sans GB','STHeiti','Helvetica Neue',Arial,sans-serif" font-size="25" font-weight="600" fill="#4B5563">结论：适合当执行编辑，不适合当总编辑</text>
  <text x="996" y="1372" font-family="'PingFang SC','Hiragino Sans GB','STHeiti','Helvetica Neue',Arial,sans-serif" font-size="25" font-weight="800" fill="#163B3A" text-anchor="end">01 / 08</text>
</svg>
